# xmcd
#
# Track frame offsets:
# 182
# 15695
# 28500
# 39425
# 51410
# 66075
# 81487
# 92387
# 110075
# 125900
# 137935
# 152735
# 168375
# 182150
#
# Disc length: 2623 seconds
#
#
# Revision: 0
# Processed by: cddbd v1.5.2PL0 Copyright (c) Steve Scherf et al.
# Submitted via: FreeRIP 2.96 
#
DISCID=c30a3d0e
DTITLE=Verschiedene - Country Weihnacht Tennessee
DYEAR=1997
DGENRE=Country
TTITLE0=Du bist nicht allein
TTITLE1=Leise rieselt der Schnee
TTITLE2=Ihr Kinderlein kommet
TTITLE3=Laßt uns froh und munter sein
TTITLE4=Es ist ein Roß entsprungen
TTITLE5=Weihnachtsfrau
TTITLE6=Kommet ihr Hirten
TTITLE7=Spiel dein Lied
TTITLE8=Heidschi Bum Beidschi
TTITLE9=Morgen kommt der Weihnachtsmann
TTITLE10=Süßer die Glocken nie klingen
TTITLE11=Schneeflöckchen, Weißröckchen
TTITLE12=Stille Nacht, Heilige Nacht
TTITLE13=Auf der Autobahn
EXTD=
EXTT0=
EXTT1=
EXTT2=
EXTT3=
EXTT4=
EXTT5=
EXTT6=
EXTT7=
EXTT8=
EXTT9=
EXTT10=
EXTT11=
EXTT12=
EXTT13=
PLAYORDER=
